<svg xmlns="http://www.w3.org/2000/svg" width="353.566" height="78.523" viewBox="0 0 353.566 78.523">
  <g id="Group_2611" data-name="Group 2611" transform="translate(20056.99 7391.071)">
    <path id="Subtraction_439" data-name="Subtraction 439" d="M133.052,92.127H121.511l.7-19.581h-6.889l-4.195,19.581H75.96l4.526-36.862A3.308,3.308,0,0,1,81.494,53.7a106.637,106.637,0,0,1,10.225-6.2,3.484,3.484,0,0,0,.908-.937l-.186,1.512H104.1l-1.065,8.663H91.379l-3.26,26.546h13.366l-.589,4.792,19.289-72.395h11.3l1.564,76.44ZM123.58,33.992l-6.367,29.714h5.309l1.058-29.713h0ZM225.466,92.126H214.191L213.7,72.25l.111-.06c1.317-.73,4.678-3.339,10.578-8.213l1.078,28.147Zm-18.283,0H196.108l2.779-22.637c2.284-2.028,3.754-3.073,4.495-3.194a1.548,1.548,0,0,1,.25-.02c1.181,0,2.324,1.361,3.533,2.8l.008.01.322.383a15.447,15.447,0,0,0,2.194,2.235l-2.507,20.42Zm-13.978,0H168.766L169.886,83c4.368.226,10.129.5,12.772.5a9.16,9.16,0,0,0,1.33-.057,1.07,1.07,0,0,0,.32-.156h9.981L193.2,92.125Zm-43.768,0H135.152l9.386-76.44h14.284c6.088,0,9.842,1.038,11.814,3.267,1.472,1.664,1.965,4,1.553,7.358L165.413,81.5c-.049.4-.108.787-.176,1.157-.264.026-.5.044-.71.055l.693.039c-.619,3.28-2,5.5-4.351,7C158.352,91.348,154.613,92.126,149.437,92.126Zm5.088-67.6L147.31,83.288h3.21a5.071,5.071,0,0,0,2.888-.628,2.539,2.539,0,0,0,1.026-1.938l6.586-53.631a2.135,2.135,0,0,0-.377-1.77c-.48-.542-1.4-.795-2.908-.795h-3.211Zm8.719,58.114h0a2.979,2.979,0,0,0,.82.085c.138,0,.289,0,.464-.013ZM73.66,92.126H50.774l4.4-35.817a63.919,63.919,0,0,1,7.157-.787,3.035,3.035,0,0,1,.8.074c.649.2,1.1,1.36,1.527,2.479a6.988,6.988,0,0,0,1.1,2.177L62.933,83.289H74.746l-1.085,8.836ZM170.021,81.9l8.13-66.218h24.111l-1.085,8.839H188.14L185.248,48.08H196.9l-1.064,8.663H184.185l-2.8,22.8c-1.286.256-2.822.585-4.447.933l-1.871.4c-1.443.306-3.32.7-5.044,1.029Zm46.558-15.022h0a.114.114,0,0,1-.1-.04c-.03-.042-.026-.118.01-.225.243-.71-.882-2.687-2.8-4.92-1.579-1.84-3.9-4.05-5.7-4.737a1.22,1.22,0,0,0-.439-.078c-1.957,0-5.338,4.1-8.064,7.669l6-48.863H220.16c5.876,0,9.493,1,11.384,3.133,1.431,1.617,1.907,3.918,1.5,7.24L230,50.823a35.767,35.767,0,0,0-3.346,6.137c-.4.833-.771,1.62-1.13,2.337a10.648,10.648,0,0,1-1.292.694l.058,1.514a1.671,1.671,0,0,1-.653.656,22.346,22.346,0,0,0-3.386,2.3C218.666,65.653,217.025,66.882,216.579,66.882Zm-1.1-42.356-3.462,28.2h3.592c2.248,0,3.161-.627,3.369-2.314l2.894-23.576a1.972,1.972,0,0,0-.337-1.631,3.214,3.214,0,0,0-2.462-.682h-3.593ZM55.789,51.281v0l4.37-35.593H71.234L67.111,49.267a25.867,25.867,0,0,0-4.584-.652,2.638,2.638,0,0,0-.833.1c-.985.351-2.861,1.166-5.9,2.565Zm25.33-1.172v0l4.227-34.421h24.111l-1.085,8.839H95.334L93.7,37.8c-.294.092-.534.175-.713.247-1.021.415-2.967,4-4.342,6.663-.922,1.785-4.6,3.919-7.528,5.4Z" transform="translate(-20107.764 -7405.715)" fill="#fff"/>
    <path id="Path_6046" data-name="Path 6046" d="M-1.122,0H13.9C24.8,0,28.472-3.36,29.315-10.227l2.677-21.8c.485-3.956-.281-6.392-3.259-7.681,2.953-1.364,4.1-3.817,4.573-7.655L35.625-66.25c.844-6.867-1.517-10.19-12.413-10.19H8.263ZM15.352-43.98,18.262-67.69h3.831c2.251,0,3.006.641,2.81,2.239L22.547-46.256c-.2,1.636-1.112,2.276-3.363,2.276ZM11.027-8.75l3.278-26.7h3.95c2.251,0,3,.715,2.8,2.314L18.341-11.027c-.2,1.637-1.111,2.277-3.362,2.277ZM57.05-77.482c-11.268,0-15.09,3.7-15.945,10.667L34.083-9.626C33.228-2.662,36.141,1.042,47.409,1.042S62.5-2.662,63.354-9.626l7.022-57.189C71.231-73.777,68.318-77.482,57.05-77.482Zm2.157,11.448L52.376-10.407c-.214,1.74-1.213,2.566-3.877,2.566s-3.461-.825-3.247-2.566l6.83-55.627C52.3-67.773,53.3-68.6,55.959-68.6s3.461.825,3.248,2.565ZM97.424,0,95.86-76.44h-11.3L64.19,0H75.5l4.2-19.581h6.888L85.882,0ZM81.585-28.42l6.366-29.714L86.894-28.42Zm41.99-48.02H108.909L99.524,0H110.6l3.751-30.559h2.5L117.607,0h11.275l-1.231-32.135c3.628-1.646,5.2-4.581,5.722-8.8l3.086-25.136C137.307-72.973,134.472-76.44,123.575-76.44ZM118.9-67.6h3.593c2.251,0,3,.678,2.8,2.314L122.4-41.712c-.206,1.674-1.117,2.314-3.368,2.314h-3.592Zm38.3-8.839H142.915L133.53,0h14.284c11.3,0,15.12-3.651,15.976-10.624l6.777-55.192c.857-6.972-2.07-10.624-13.368-10.624Zm2.2,11.405L152.812-11.4c-.215,1.747-1.218,2.566-3.914,2.566h-3.21L152.9-67.6h3.21c2.7,0,3.5.817,3.285,2.566Z" transform="translate(-19874.131 -7313.589)" fill="#d1c046"/>
  </g>
</svg>
